<svg width="469" height="511" viewBox="0 0 469 511" fill="none" xmlns="http://www.w3.org/2000/svg">
<path d="M228 465C102.079 465 2.96991e-06 475.297 1.91325e-06 488C8.56592e-07 500.703 102.079 511 228 511C353.921 511 456 500.703 456 488C456 475.297 353.921 465 228 465Z" fill="#F0F0F5"/>
<path d="M434.38 398.817C434.38 398.817 402.032 491.056 398.566 491.056C395.1 491.056 325.782 512.963 387.013 485.291C387.013 485.291 393.945 384.981 404.342 380.369C414.74 375.758 434.38 398.817 434.38 398.817Z" fill="#965450"/>
<path d="M410.119 465.229C420.632 437.903 434.38 398.817 434.38 398.817C434.38 398.817 414.74 375.758 404.342 380.369C397.642 383.367 392.327 426.489 389.439 456.466C396.371 459.234 403.187 462.231 410.119 465.229Z" fill="#76413B"/>
<path d="M376.962 490.249C376.962 490.249 374.305 496.36 399.721 489.903L398.566 493.362C398.566 493.362 326.937 510.196 376.962 490.249Z" fill="#051F38"/>
<path d="M414.739 359.731C414.739 359.731 464.764 443.784 462.569 446.436C460.374 449.087 432.646 516.191 450.669 451.509C450.669 451.509 378.116 381.753 381.236 370.8C384.471 359.962 414.739 359.731 414.739 359.731Z" fill="#965450"/>
<path d="M448.128 462.347C448.128 462.347 451.132 468.342 462.454 444.706L464.418 447.819C464.302 447.819 431.261 513.539 448.128 462.347Z" fill="#051F38"/>
<path d="M443.854 409.771C430.452 386.134 414.74 359.731 414.74 359.731C414.74 359.731 384.471 359.962 381.236 370.8C379.157 377.833 408.964 409.655 430.106 431.101C430.221 431.216 438.424 422.108 443.854 409.771Z" fill="#76413B"/>
<path d="M446.509 233.364C446.509 233.364 415.894 199.351 397.987 220.681C380.08 242.011 352.353 312.343 356.396 341.168C358.822 358.117 375.112 376.219 388.167 388.325L377.192 450.125C377.192 450.125 422.248 462.231 419.36 462.231C417.627 462.231 463.839 338.286 468.46 299.084C473.081 259.883 446.509 233.364 446.509 233.364Z" fill="#6633CC"/>
<path opacity="0.2" d="M423.058 240.974C431.607 240.858 440.965 239.705 449.168 236.362C447.551 234.402 446.511 233.364 446.511 233.364C446.511 233.364 415.895 199.351 397.988 220.681C395.216 224.025 392.212 228.406 389.208 233.71C399.259 239.244 411.967 241.204 423.058 240.974Z" fill="#352C38"/>
<path opacity="0.2" d="M377.193 257.461C364.485 286.401 353.74 322.374 356.398 341.053C358.708 357.886 374.882 375.873 387.937 387.979C392.558 356.618 400.992 313.035 406.075 287.9C393.483 280.752 383.085 270.49 377.193 257.461Z" fill="#352C38"/>
<path d="M358.131 165.337L339.646 201.08C339.646 201.08 307.298 183.209 302.676 183.209C298.055 183.209 276.105 183.785 286.502 188.397C286.502 188.397 281.881 191.279 287.08 192.432C287.08 192.432 282.459 196.468 288.235 197.044L301.521 196.468C301.521 196.468 328.093 220.681 341.379 224.139C354.665 227.598 376.038 182.632 376.038 182.632L358.131 165.337Z" fill="#965450"/>
<path d="M361.135 190.934C364.023 191.972 367.027 193.01 370.03 194.047C373.727 187.591 376.038 182.517 376.038 182.517L358.131 165.223L347.964 184.823C352.008 187.36 356.513 189.32 361.135 190.934Z" fill="#76413B"/>
<path d="M381.236 148.043C381.236 148.043 363.907 145.161 357.552 154.385C351.198 163.608 348.31 178.597 348.31 178.597L373.149 190.704L381.236 148.043Z" fill="#34CB79"/>
<path opacity="0.1" d="M371.648 180.673C365.294 175.715 358.016 169.489 353.279 161.994C349.813 170.065 348.196 178.482 348.196 178.482L373.034 190.588L374.536 182.748C373.612 182.172 372.572 181.48 371.648 180.673Z" fill="#161826"/>
<path d="M259.699 178.943C260.392 180.788 259.353 182.863 257.504 183.555L243.872 188.513C242.023 189.205 239.944 188.167 239.25 186.322L233.821 171.218C233.127 169.373 234.167 167.298 236.016 166.606L249.648 161.648C251.497 160.957 253.576 161.994 254.269 163.839L259.699 178.943Z" fill="#23173B"/>
<path d="M270.674 167.644L227.928 182.979C220.419 185.63 216.607 193.932 219.264 201.426L232.434 237.976C235.091 245.47 243.409 249.275 250.919 246.623L293.665 231.289C301.174 228.637 304.987 220.335 302.33 212.841L289.159 176.291C286.387 168.797 278.184 164.877 270.674 167.644ZM298.171 216.185C299.21 219.182 297.708 222.526 294.705 223.564L276.335 172.832C279.339 171.795 282.69 173.294 283.729 176.291L298.171 216.185Z" fill="#322153"/>
<path d="M256.926 163.608C257.504 165.223 256.695 167.067 255.078 167.644L235.669 174.677C234.051 175.254 232.203 174.447 231.625 172.832L230.008 168.336C229.43 166.722 230.239 164.877 231.856 164.3L251.265 157.267C252.883 156.691 254.731 157.498 255.309 159.112L256.926 163.608Z" fill="#6633CC"/>
<path d="M284.192 185.515C284.192 185.515 291.47 182.979 292.741 184.477C293.896 185.861 286.618 187.936 286.964 188.052C287.195 188.167 294.82 186.438 295.514 188.052C296.207 189.666 287.427 192.548 287.427 192.548C287.427 192.548 295.745 190.242 296.322 191.972C296.9 193.701 287.658 196.238 287.658 196.238L287.195 192.433L286.618 188.052L284.192 185.515Z" fill="#965450"/>
<path d="M294.474 183.555C294.474 183.555 288.813 179.75 288.813 178.482C288.697 177.098 303.832 183.44 303.832 183.44L294.474 183.555Z" fill="#965450"/>
<path d="M406.075 145.161C404.92 147.236 410.581 98.9261 410.581 98.9261L384.356 116.567C384.356 116.567 386.666 147.467 383.778 147.582C382.623 147.582 378.117 149.312 373.149 151.156C374.305 156.921 376.615 158.189 378.579 163.724C393.252 163.609 409.195 163.263 418.206 149.888C413.007 148.159 407.577 142.278 406.075 145.161Z" fill="#76413B"/>
<path d="M381.237 148.043L380.081 144.008L408.964 137.666L410.119 144.584C410.119 144.584 444.778 156.114 449.399 182.056C454.02 207.998 451.71 224.717 446.511 233.364C446.511 233.364 406.076 239.129 388.746 230.482C371.417 221.834 353.509 157.267 362.752 151.502C371.994 145.737 381.237 148.043 381.237 148.043Z" fill="#34CB79"/>
<path opacity="0.1" d="M419.015 219.874C405.152 219.067 388.169 217.453 376.616 208.921C374.421 207.307 372.457 205.577 370.608 203.617C375.807 216.415 382.277 227.253 388.746 230.482C406.076 239.129 446.511 233.364 446.511 233.364C448.822 229.559 450.555 224.14 451.363 216.992C440.966 220.105 430.106 220.566 419.015 219.874Z" fill="#161826"/>
<path d="M417.628 199.927L447.088 197.621C447.088 197.621 439.579 249.505 430.914 267.377C422.25 285.248 382.392 355.58 397.988 316.378C397.988 316.378 377.771 346.933 395.1 315.802C395.1 315.802 376.038 340.591 392.789 314.073C392.789 314.073 373.149 336.556 393.945 304.849C393.945 304.849 378.348 312.343 395.678 299.66L412.43 255.847L417.628 199.927Z" fill="#965450"/>
<path d="M446.395 201.772C446.858 199.12 447.089 197.506 447.089 197.506L417.628 199.812L417.397 202.81C426.986 202.81 436.691 202.349 446.395 201.772Z" fill="#76413B"/>
<path d="M386.782 67.9108C386.782 67.9108 401.454 59.3787 422.943 73.4451C437.153 82.7843 436.46 112.647 405.729 132.247C369.222 155.538 386.782 67.9108 386.782 67.9108Z" fill="#051F38"/>
<path d="M407.116 83.822C407.116 83.822 390.595 71.0238 376.5 77.25C358.709 85.3209 360.557 104.114 360.21 120.141C359.748 141.471 376.616 145.507 381.699 145.737C389.208 146.198 419.824 144.354 407.116 83.822Z" fill="#965450"/>
<path d="M408.733 103.769C408.733 103.769 409.426 100.54 414.972 103.077C422.019 106.42 418.207 123.254 410.35 122.793C402.379 122.447 408.733 103.769 408.733 103.769Z" fill="#965450"/>
<path d="M408.733 103.769C408.733 103.769 409.657 115.298 407 115.414C404.227 115.529 401.339 94.5447 408.964 94.5447C416.589 94.7753 408.733 103.769 408.733 103.769Z" fill="#051F38"/>
<path d="M408.733 103.769C408.733 103.769 403.072 78.1724 369.453 82.4384C369.453 82.4384 374.305 72.8686 384.934 68.372C399.375 62.2612 420.979 86.8198 414.971 103.077C414.971 103.077 412.199 103.423 408.733 103.769Z" fill="#34CB79"/>
<path d="M422.943 80.1324C422.943 80.1324 421.094 49.5783 428.488 49.5783C435.882 49.5783 427.91 75.2899 427.91 75.2899C427.91 75.2899 434.034 38.5097 451.825 44.044C469.617 49.5783 438.886 75.2899 438.886 75.2899C438.886 75.2899 452.98 62.3765 457.948 66.7578C462.8 71.0238 437.73 79.6712 437.73 79.6712C437.73 79.6712 456.793 74.1369 459.219 83.3608C461.645 92.4693 422.365 91.2011 422.943 80.1324Z" fill="#051F38"/>
<path d="M361.135 97.8889C361.135 97.8889 361.135 97.6583 361.366 97.1971C361.597 96.7359 361.828 96.1594 362.405 95.5829C362.983 95.0064 363.676 94.3146 364.6 93.8534C364.831 93.7381 365.063 93.6228 365.409 93.5075C365.64 93.3922 365.987 93.2769 366.218 93.2769C366.564 93.2769 366.795 93.1616 367.142 93.1616H368.066C368.644 93.1616 369.222 93.3922 369.799 93.6228C370.377 93.8534 370.839 94.084 371.301 94.4299C371.763 94.7758 372.11 95.1217 372.456 95.4676C372.803 95.8135 373.034 96.1594 373.15 96.5053C373.265 96.6206 373.381 96.8512 373.381 96.9665C373.496 97.0818 373.496 97.3124 373.612 97.4277C373.727 97.7736 373.843 98.0042 373.843 98.2348C373.958 98.6959 373.958 98.9265 373.958 98.9265C373.958 98.9265 373.727 98.8112 373.265 98.696C373.034 98.5807 372.803 98.4653 372.572 98.3501C372.341 98.2348 371.994 98.1195 371.648 97.8889C371.301 97.7736 371.07 97.543 370.723 97.4277C370.377 97.3124 370.03 97.1971 369.684 97.0818C369.337 96.9665 368.991 96.8512 368.644 96.7359C368.297 96.7359 367.951 96.6206 367.604 96.6206H367.142C367.027 96.6206 366.795 96.6206 366.564 96.6206C366.218 96.6206 365.871 96.7359 365.525 96.7359C365.178 96.8512 364.831 96.8512 364.485 96.9665C364.138 97.0818 363.792 97.0818 363.445 97.1971C362.752 97.4277 362.174 97.543 361.828 97.6583C361.481 97.8889 361.135 97.8889 361.135 97.8889Z" fill="#051F38"/>
<path d="M370.03 129.595C370.03 129.595 388.977 130.172 390.248 129.941C391.403 129.711 379.619 138.935 370.03 129.595Z" fill="white"/>
<path d="M371.301 108.496C371.301 108.496 371.301 108.726 371.185 109.188C371.07 109.649 370.954 110.225 370.723 111.032C370.608 111.378 370.492 111.839 370.261 112.185C370.146 112.416 370.03 112.647 369.915 112.762C369.799 112.992 369.568 113.223 369.453 113.338C369.106 113.684 368.759 114.145 368.182 114.376C368.066 114.491 367.951 114.491 367.72 114.607L367.373 114.722C367.142 114.837 366.795 114.837 366.449 114.837C365.871 114.837 365.178 114.722 364.716 114.261C364.254 113.915 363.907 113.454 363.676 112.877C363.445 112.416 363.329 111.955 363.214 111.494C363.098 111.032 363.098 110.571 363.098 110.225C363.098 109.418 363.098 108.842 363.214 108.381C363.329 107.919 363.445 107.689 363.445 107.689C363.445 107.689 363.445 108.726 363.792 110.225C363.907 110.917 364.138 111.839 364.6 112.531C364.831 112.877 365.062 113.223 365.409 113.454C365.756 113.684 366.102 113.8 366.449 113.8C366.68 113.8 366.795 113.8 367.026 113.684L367.373 113.569C367.373 113.569 367.489 113.454 367.604 113.454C367.951 113.338 368.297 112.992 368.644 112.762C368.99 112.416 369.221 112.07 369.453 111.724C369.684 111.378 369.915 111.032 370.03 110.686C370.377 109.995 370.608 109.418 370.839 109.072C371.185 108.726 371.301 108.496 371.301 108.496Z" fill="#1F2733"/>
<path d="M390.363 109.995C390.363 109.995 390.364 110.225 390.248 110.686C390.132 111.148 390.017 111.724 389.786 112.531C389.67 112.877 389.555 113.338 389.324 113.684C389.208 113.915 389.093 114.145 388.977 114.261C388.862 114.491 388.631 114.722 388.515 114.837C388.168 115.183 387.822 115.644 387.244 115.875C387.129 115.99 387.013 115.99 386.782 116.106L386.435 116.221C386.204 116.336 385.858 116.336 385.511 116.336C384.934 116.336 384.24 116.221 383.778 115.76C383.316 115.414 382.97 114.953 382.739 114.376C382.507 113.915 382.392 113.454 382.276 112.992C382.161 112.531 382.161 112.07 382.161 111.724C382.161 110.917 382.161 110.341 382.276 109.879C382.392 109.418 382.507 109.188 382.507 109.188C382.507 109.188 382.507 110.225 382.854 111.724C382.97 112.416 383.201 113.338 383.663 114.03C383.894 114.376 384.125 114.722 384.471 114.953C384.818 115.183 385.165 115.298 385.511 115.298C385.742 115.298 385.858 115.298 386.089 115.183L386.435 115.068C386.435 115.068 386.551 114.953 386.667 114.953C387.013 114.837 387.36 114.491 387.706 114.261C388.053 113.915 388.284 113.569 388.515 113.223C388.746 112.877 388.977 112.531 389.093 112.185C389.439 111.494 389.67 110.917 389.901 110.571C390.248 110.225 390.363 109.995 390.363 109.995Z" fill="#1F2733"/>
<path d="M411.39 119.565C411.736 119.103 411.967 118.757 412.199 118.296C412.43 117.835 412.545 117.374 412.661 116.913C412.661 116.682 412.661 116.451 412.661 116.221C412.661 116.106 412.545 115.99 412.545 115.99C412.545 115.875 412.43 115.76 412.314 115.76C412.199 115.644 412.199 115.644 412.083 115.529L411.852 115.298C411.736 115.183 411.621 115.183 411.505 115.183L411.159 115.068L410.928 114.953V114.722C410.581 113.454 410.466 112.301 410.35 111.032C410.235 110.456 410.235 109.764 410.35 109.188C410.35 108.496 410.466 107.919 410.697 107.228C410.812 106.882 411.043 106.536 411.39 106.305C411.736 106.075 412.199 105.844 412.545 105.959C413.007 105.959 413.238 106.075 413.585 106.19C413.931 106.305 414.278 106.421 414.509 106.651C414.74 106.882 415.087 107.112 415.202 107.343C415.433 107.574 415.549 107.919 415.664 108.15C415.896 108.726 416.011 109.418 415.895 109.995C415.78 109.418 415.664 108.842 415.318 108.265C415.202 108.035 414.971 107.804 414.74 107.573C414.509 107.343 414.278 107.228 414.047 107.112C413.816 106.997 413.585 106.882 413.238 106.882C413.007 106.882 412.661 106.766 412.43 106.766C411.967 106.766 411.736 107.112 411.621 107.573C411.274 108.611 411.39 109.764 411.39 110.917C411.505 112.07 411.621 113.338 411.852 114.491L411.621 114.146L411.967 114.376C412.083 114.491 412.199 114.491 412.314 114.607L412.661 114.837C412.776 114.953 412.892 115.068 413.007 115.183C413.123 115.299 413.238 115.414 413.238 115.644C413.354 115.76 413.354 115.99 413.354 116.106C413.469 116.451 413.354 116.682 413.354 117.028C413.238 117.604 412.892 118.066 412.545 118.527C412.199 118.873 411.736 119.334 411.39 119.565Z" fill="#76413B"/>
<path d="M373.034 124.407C372.457 124.522 371.995 124.522 371.532 124.522C371.07 124.522 370.608 124.407 370.262 124.292C369.799 124.176 369.453 123.946 369.106 123.831C368.875 123.715 368.76 123.6 368.529 123.485C368.298 123.369 368.182 123.254 367.951 123.139L367.258 122.562L367.373 122.101C368.529 118.757 369.684 115.529 370.839 112.301C371.995 109.072 373.265 105.729 374.536 102.5C373.728 105.844 372.803 109.303 371.995 112.647C371.07 115.99 370.146 119.334 369.222 122.678L368.76 121.64C368.991 121.64 369.222 121.755 369.453 121.755C369.684 121.755 369.915 121.87 370.031 121.986C370.377 122.101 370.839 122.332 371.186 122.562C371.532 122.793 371.879 123.139 372.226 123.485C372.457 123.6 372.803 123.946 373.034 124.407Z" fill="#76413B"/>
<path d="M379.85 96.5048C379.85 96.5048 379.966 96.1589 380.312 95.813C380.544 95.5824 380.659 95.3518 381.006 95.0059C381.352 94.7753 381.583 94.4294 382.045 94.1988C382.392 93.9682 382.854 93.6223 383.432 93.3917C383.894 93.1611 384.472 92.9305 385.049 92.6999C385.627 92.5846 386.32 92.354 387.013 92.354C387.36 92.354 387.706 92.354 388.053 92.354L389.093 92.4693C389.786 92.4693 390.479 92.8152 391.057 92.9305C391.634 93.1611 392.212 93.507 392.79 93.7376C393.367 94.0835 393.829 94.4294 394.176 94.7753C394.638 95.1212 394.985 95.5824 395.216 95.9283C395.562 96.2742 395.793 96.6201 396.025 96.966C396.256 97.3119 396.371 97.6578 396.487 97.8884C396.718 98.3496 396.833 98.6955 396.833 98.6955C396.833 98.6955 396.487 98.5802 396.025 98.3496C395.793 98.2343 395.447 98.119 395.1 97.8884C394.754 97.6578 394.407 97.5425 393.945 97.4272C393.598 97.3119 393.136 97.0813 392.674 96.8507C392.212 96.7354 391.75 96.5048 391.288 96.3895C390.826 96.2742 390.364 96.1589 389.901 96.0436C389.439 96.0436 388.977 95.813 388.4 95.813L387.706 95.6977H387.013C386.551 95.6977 385.973 95.6977 385.511 95.6977C385.049 95.6977 384.587 95.6977 384.125 95.813C383.663 95.813 383.201 95.9283 382.739 95.9283C381.93 96.0436 381.121 96.1589 380.659 96.2742C380.197 96.5048 379.85 96.5048 379.85 96.5048Z" fill="#051F38"/>
<path d="M363.907 490.825C363.907 494.976 360.557 498.435 356.398 498.55C352.239 498.55 348.773 495.207 348.657 491.056L348.311 466.613C348.311 462.462 351.661 459.003 355.82 458.888C359.979 458.888 363.445 462.231 363.56 466.382L363.907 490.825Z" fill="#091E1D"/>
<path d="M257.504 492.095C257.504 496.245 254.154 499.704 249.995 499.82C245.836 499.82 242.37 496.476 242.254 492.325L241.908 467.882C241.908 463.731 245.258 460.272 249.417 460.157C253.576 460.157 257.042 463.501 257.158 467.651L257.504 492.095Z" fill="#091E1D"/>
<path d="M355.358 473.415C355.474 482.87 347.849 490.595 338.375 490.71L267.209 491.517C257.735 491.633 249.995 484.023 249.879 474.568L242.254 312.92C242.139 303.466 249.764 295.741 259.237 295.625L341.841 294.588C351.315 294.472 359.055 302.082 359.171 311.536L355.358 473.415Z" fill="#34CB79"/>
<path opacity="0.1" d="M358.708 327.793L359.055 311.767C358.939 302.313 351.199 294.703 341.725 294.818L259.122 295.856C249.648 295.971 242.023 303.696 242.139 313.151L242.947 329.177L358.708 327.793Z" fill="#161826"/>
<path d="M372.803 307.732C372.803 310.383 370.723 312.459 368.066 312.574L233.128 314.188C230.47 314.188 228.391 312.113 228.275 309.461L228.044 292.397C228.044 289.745 230.124 287.67 232.781 287.554L367.72 285.94C370.377 285.94 372.456 288.016 372.572 290.667L372.803 307.732Z" fill="#34CB79"/>
<path d="M301.175 355.119L316.887 345.665L313.074 355.465L301.175 355.119Z" fill="white"/>
<path d="M295.282 340.246C295.282 340.246 296.553 340.246 298.517 343.243C300.481 346.241 304.871 354.312 304.871 354.312L312.843 350.738L314.691 347.625C314.691 347.625 311.226 340.707 308.453 340.246H295.282Z" fill="white"/>
<path d="M290.892 342.321C290.892 342.321 293.318 339.669 295.282 341.053C297.246 342.437 300.712 348.202 300.712 348.202L295.051 358.117L284.885 352.468L290.892 342.321Z" fill="white"/>
<path d="M308.338 367.456L309.146 385.673L302.33 377.718L308.338 367.456Z" fill="white"/>
<path d="M324.281 369.301C324.281 369.301 323.703 370.454 320.121 370.8C316.54 371.146 307.298 371.146 307.298 371.146L306.604 379.908L308.453 383.021C308.453 383.021 316.193 383.367 317.926 381.061L324.281 369.301Z" fill="white"/>
<path d="M324.396 364.458C324.396 364.458 325.667 367.802 323.472 368.955C321.392 369.993 314.576 370.223 314.576 370.223L308.453 360.538L318.273 354.197L324.396 364.458Z" fill="white"/>
<path d="M294.472 367.226L278.298 358.693L288.696 356.849L294.472 367.226Z" fill="white"/>
<path d="M284.885 380.024C284.885 380.024 284.192 378.986 285.694 375.758C287.195 372.529 291.817 364.574 291.817 364.574L284.654 359.616L281.072 359.731C281.072 359.731 276.913 366.303 277.953 368.84L284.885 380.024Z" fill="white"/>
<path d="M288.928 382.56C288.928 382.56 285.347 381.868 285.578 379.562C285.693 377.141 288.928 371.261 288.928 371.261L300.366 370.915L300.828 382.56H288.928Z" fill="white"/>
<path d="M53.2474 445.167C53.2474 445.167 50.7058 485.868 48.5107 486.675C40.077 489.557 -23.5799 505.699 36.6112 478.604L34.9937 448.972L53.2474 445.167Z" fill="#051F38"/>
<path d="M50.5902 476.759C52.0921 464.422 53.2474 445.167 53.2474 445.167L34.9937 448.972L36.4955 475.376C41.0012 476.644 46.2 476.759 50.5902 476.759Z" fill="#041523"/>
<path d="M11.079 492.786C9.23055 497.282 42.5031 488.75 48.5107 486.675C48.6262 486.56 48.8573 486.329 49.0883 485.752C41.5789 487.828 18.8195 493.016 11.079 492.786Z" fill="white"/>
<path d="M92.1809 442.977C92.1809 442.977 95.5313 483.677 97.8419 484.369C106.391 487.136 170.279 502.01 109.51 476.067L110.55 446.436L92.1809 442.977Z" fill="#051F38"/>
<path d="M95.5313 474.453C93.7983 462.232 92.1809 442.977 92.1809 442.977L110.55 446.436L109.626 472.839C105.12 474.223 99.9214 474.338 95.5313 474.453Z" fill="#041523"/>
<path d="M135.389 489.788C137.353 494.284 103.849 486.329 97.8418 484.369C97.6107 484.369 97.4952 484.023 97.2642 483.446C104.774 485.522 127.648 490.249 135.389 489.788Z" fill="white"/>
<path d="M103.387 223.218C103.387 223.218 120.024 357.31 116.673 465.806C116.673 465.806 96.8022 471.34 91.6033 467.305C87.0976 441.593 87.6753 391.554 80.9746 354.427C74.6204 319.377 72.0788 290.667 72.0788 290.667L69.9992 288.361C69.9992 288.361 56.3667 457.85 53.363 470.764C36.149 474.799 30.7191 470.072 30.7191 470.072C30.7191 470.072 22.8631 258.038 27.7154 223.794C33.954 179.059 103.387 223.218 103.387 223.218Z" fill="#34CB79"/>
<path opacity="0.1" d="M106.39 251.004C104.657 233.709 103.271 223.333 103.271 223.333C103.271 223.333 33.9529 179.173 27.5987 223.909C27.0211 228.06 26.6745 234.862 26.3279 243.51C31.5267 246.392 96.4545 255.616 106.39 251.004Z" fill="#161826"/>
<path opacity="0.1" d="M70.8081 286.978C71.6168 296.086 75.7759 325.488 80.9747 354.427C87.6755 391.669 87.0978 441.593 91.6035 467.305C96.8023 471.34 116.673 465.806 116.673 465.806C118.637 399.048 113.208 322.605 108.586 273.719C97.611 280.636 83.6319 283.98 70.8081 286.978Z" fill="#161826"/>
<path d="M76.7 105.959C76.8155 91.8929 77.8553 73.3298 77.8553 73.3298L50.1281 65.7201C50.1281 65.7201 51.0524 90.8552 51.8611 106.19C39.2683 110.456 24.9426 118.527 24.9426 118.527L77.2776 131.786L95.8779 113.8C95.8779 113.8 86.52 109.072 76.7 105.959Z" fill="#FFB39F"/>
<path d="M76.7 105.959C76.8155 91.8929 77.8553 73.3298 77.8553 73.3298L50.1281 65.7201C50.1281 65.7201 51.0524 90.8552 51.8611 106.19C39.2683 110.456 24.9426 118.527 24.9426 118.527L77.2776 131.786L102.001 110.571C102.001 110.571 86.6355 104.806 76.7 105.959Z" fill="#E09B8D"/>
<path d="M47.702 39.0862C47.702 39.0862 54.9804 15.5653 74.1584 19.2549C93.3363 22.9444 96.109 47.9642 98.5351 64.7978C100.961 81.7466 95.5314 96.966 80.5125 98.8108C67.4576 100.425 44.6983 97.8884 47.702 39.0862Z" fill="#FFB39F"/>
<path d="M48.6264 58.8022C48.6264 58.8022 47.4711 55.6892 42.7344 59.1481C36.7269 63.5295 42.8499 79.6712 50.1283 77.9418C57.4067 76.2123 48.6264 58.8022 48.6264 58.8022Z" fill="#FFB39F"/>
<path d="M41.9256 25.5963C42.3877 25.481 51.399 24.7892 45.3915 25.3657C50.9369 31.3612 50.3592 32.8601 57.9842 34.2436C62.0278 46.6959 54.0562 54.1903 54.0562 54.1903L56.2513 69.1791L50.4748 69.7556C50.4748 69.7556 50.5903 59.3787 46.2002 58.4563C41.81 57.5339 40.5392 62.8377 40.5392 62.8377C31.4124 51.3078 22.17 28.7093 41.9256 25.5963Z" fill="#051F38"/>
<path d="M94.2607 17.1795C97.9576 8.07089 91.719 0 91.719 0C92.7588 3.34366 92.2966 6.45671 91.2569 8.99328C90.5637 6.45671 89.2929 3.68955 86.9823 0.922387C86.9823 0.922387 87.6754 10.1463 75.0827 8.99328C62.49 7.84029 40.4238 9.56977 39.4995 29.0552C38.4598 48.5407 57.2911 34.3589 57.2911 34.3589C57.2911 34.3589 94.8383 44.8511 100.268 14.6429L94.2607 17.1795Z" fill="#051F38"/>
<path d="M76.4688 50.8476C76.4688 50.8476 76.1222 50.8476 75.6601 50.7323C75.0824 50.617 74.3893 50.5017 73.5806 50.3864C73.1184 50.2711 72.7719 50.2711 72.3097 50.2711C71.8476 50.1558 71.3855 50.1558 70.9234 50.1558C70.4613 50.1558 69.9991 50.1558 69.4215 50.1558C69.1904 50.1558 68.9594 50.1558 68.7283 50.1558L68.0351 50.2711C67.573 50.2711 67.1109 50.3864 66.5333 50.5017C66.0711 50.617 65.609 50.7323 65.1469 50.8476C64.6848 50.9629 64.2227 51.1935 63.7605 51.3088C63.2984 51.4241 62.9518 51.6547 62.4897 51.77C62.1431 51.8853 61.681 52.0006 61.4499 52.2312C61.1033 52.3465 60.8723 52.4618 60.6412 52.5771C60.1791 52.8077 59.8325 52.923 59.8325 52.923C59.8325 52.923 59.9481 52.5771 60.1791 52.1159C60.2946 51.8853 60.4102 51.5394 60.6412 51.1935C60.8723 50.8476 61.1033 50.5017 61.4499 50.1558C61.7965 49.8099 62.0276 49.3487 62.4897 49.0028C62.9518 48.6569 63.414 48.311 63.9916 47.9651C64.5692 47.7345 65.1469 47.3886 65.7245 47.158C66.4177 46.9274 66.9954 46.8121 67.6885 46.6968L68.7283 46.5815C69.0749 46.5815 69.4215 46.5815 69.7681 46.6968C70.1147 46.6968 70.4613 46.8121 70.6923 46.8121C71.0389 46.9274 71.27 46.9274 71.6166 47.0427C72.1942 47.2733 72.7719 47.3886 73.234 47.7345C73.6961 47.9651 74.1582 48.311 74.6203 48.5416C74.9669 48.7722 75.3135 49.1181 75.6601 49.3487C75.8912 49.5793 76.1222 49.9252 76.3533 50.0405C76.2378 50.5017 76.4688 50.8476 76.4688 50.8476Z" fill="#051F38"/>
<path d="M95.9934 50.2701C95.9934 50.2701 95.7624 50.1548 95.3002 50.0395C94.8381 49.9242 94.2605 49.6936 93.6828 49.463C93.3362 49.3477 92.9897 49.2325 92.6431 49.1172C92.2965 49.0019 91.9499 48.8865 91.6033 48.8865C91.2567 48.8865 90.9101 48.7713 90.5635 48.656C90.448 48.656 90.2169 48.656 90.1014 48.5407H89.6393C89.2927 48.4254 88.9461 48.656 88.5995 48.5407C88.2529 48.656 87.9063 48.656 87.5598 48.7713C87.2132 48.8866 86.8666 49.0019 86.52 49.1172C86.1734 49.2325 85.8268 49.3477 85.5958 49.463C85.2492 49.5783 84.9026 49.6936 84.6715 49.8089C84.4405 49.9242 84.2094 50.0395 83.9783 50.0395C83.5162 50.1548 83.2852 50.2701 83.2852 50.2701C83.2852 50.2701 83.2852 50.0395 83.5162 49.5783C83.6317 49.3477 83.6317 49.1171 83.8628 48.7713C83.9783 48.4254 84.2094 48.1948 84.4405 47.8489C84.6715 47.503 84.9026 47.1571 85.2492 46.8112C85.5957 46.4653 86.0579 46.2347 86.4045 45.8888C86.8666 45.6582 87.4442 45.4276 87.9063 45.197C88.484 45.0817 89.0616 44.9664 89.6393 44.9664C89.9859 44.9664 90.2169 44.9664 90.5635 44.9664C90.9101 44.9664 91.1412 45.0817 91.3722 45.197C91.6033 45.197 91.9499 45.3123 92.1809 45.4276C92.412 45.5429 92.6431 45.6582 92.8741 45.7735C93.7984 46.35 94.4916 46.9265 94.9537 47.6183C95.4158 48.3101 95.6468 48.8866 95.8779 49.3477C95.9934 50.0395 95.9934 50.2701 95.9934 50.2701Z" fill="#051F38"/>
<path d="M81.7832 51.5384C82.4764 53.0373 83.1696 54.6515 83.8627 56.1504C84.2093 56.9574 84.4404 57.6492 84.787 58.4563L85.7112 60.7623L86.6355 63.0683C86.982 63.8754 87.2131 64.5671 87.5597 65.3742L88.0218 66.5272C88.1374 66.8731 88.3684 67.3343 88.4839 67.6802C88.8305 68.372 89.1771 69.0638 89.5237 69.8709L89.8703 70.7933L89.1771 71.1392C88.1374 71.6004 87.0976 72.1768 85.9423 72.638C84.9025 73.0992 83.7472 73.5604 82.5919 73.9063C83.5161 73.0992 84.4404 72.4074 85.3646 71.7157C86.2889 71.0239 87.3286 70.3321 88.2529 69.6403L87.9063 70.9086C87.4442 70.2168 86.9821 69.4097 86.5199 68.7179C86.0578 68.0261 85.7112 67.219 85.3646 66.4119L84.787 65.2589L84.3249 64.106C84.0938 63.2989 83.7472 62.4918 83.5161 61.6847L82.823 59.2634C82.5919 58.4563 82.4764 57.6492 82.2453 56.8421C82.1298 54.9974 81.8987 53.2679 81.7832 51.5384Z" fill="#DD9078"/>
<path d="M48.2796 74.5981C47.8175 74.3675 47.3553 74.0216 47.0087 73.5604C46.6622 73.2145 46.2 72.7533 45.969 72.1769C45.8535 71.9463 45.7379 71.6004 45.7379 71.2545C45.7379 71.1392 45.7379 70.9086 45.7379 70.7933C45.7379 70.678 45.8535 70.4474 45.8535 70.3321C45.969 69.9862 46.2 69.7556 46.4311 69.525C46.5466 69.4097 46.6622 69.2944 46.7777 69.1791L47.1243 68.9485L46.8932 69.2944C46.8932 68.0261 46.8932 66.7578 46.7777 65.6048C46.6622 64.3366 46.5466 63.0683 46.0845 62.0306C45.969 61.8 45.8535 61.5694 45.6224 61.4541C45.5069 61.3388 45.2758 61.2235 45.0447 61.2235C44.9292 61.2235 44.8137 61.2235 44.6982 61.3388C44.5826 61.3388 44.3516 61.4541 44.236 61.4541C44.005 61.5694 43.7739 61.6847 43.5429 61.9153C43.3118 62.1459 43.0807 62.2612 42.9652 62.4918C42.8497 62.7224 42.6186 62.953 42.5031 63.2989C42.272 63.8754 42.1565 64.4519 42.1565 65.1436C41.9254 64.5671 41.9254 63.8754 42.041 63.1836C42.041 62.8377 42.1565 62.4918 42.3876 62.2612C42.5031 61.9153 42.7341 61.6847 42.9652 61.4541L43.3118 61.1082L43.7739 60.7623C43.8895 60.647 44.1205 60.647 44.236 60.5317C44.3516 60.4164 44.5826 60.4164 44.8137 60.3011C45.2758 60.1858 45.7379 60.3011 46.0845 60.647C46.4311 60.8776 46.6622 61.2235 46.7777 61.5694C47.1243 62.2612 47.2398 62.8377 47.4709 63.5295C47.5864 64.2213 47.7019 64.7977 47.7019 65.4895C47.8175 66.7578 47.8175 68.0261 47.7019 69.4097V69.6403L47.4709 69.7556C47.2398 69.8709 47.0088 69.9862 46.8932 70.2168C46.7777 70.3321 46.5466 70.5627 46.4311 70.678C46.3156 70.7933 46.3156 70.9086 46.3156 71.0239C46.3156 71.1392 46.2 71.2545 46.2 71.3698C46.2 71.6004 46.2 71.831 46.2 72.0615C46.3156 72.5227 46.5466 72.9839 46.8932 73.4451C47.5864 73.9063 47.933 74.2522 48.2796 74.5981Z" fill="#DD9078"/>
<path d="M66.4177 61.8C66.4177 61.8 66.5333 62.0306 66.6488 62.4917C66.7643 62.7223 66.7643 62.9529 66.8798 63.1835C66.9954 63.4141 67.1109 63.76 67.342 64.1059C67.4575 64.4518 67.8041 64.6824 67.9196 65.0283C68.0351 65.1436 68.1507 65.2589 68.3817 65.4895C68.4973 65.6048 68.6128 65.7201 68.8438 65.8354C69.1904 66.066 69.537 66.1813 69.8836 66.2966C70.1147 66.2966 70.2302 66.4119 70.4613 66.4119C70.6923 66.4119 70.8079 66.4119 71.0389 66.2966L71.6166 66.066L72.1942 65.7201C72.5408 65.4895 72.7719 65.1436 73.0029 64.7977C73.234 64.4518 73.3495 64.1059 73.5806 63.76C73.6961 63.4141 73.8116 63.0682 73.8116 62.607C73.8116 62.2611 73.8116 61.9152 73.9272 61.6847C73.9272 61.3388 73.9272 61.1082 73.9272 60.8776C73.9272 60.4164 73.9272 60.1858 73.9272 60.1858C73.9272 60.1858 74.0427 60.4164 74.1582 60.8776C74.2737 61.1082 74.2738 61.3388 74.3893 61.6847C74.3893 62.0305 74.5048 62.3764 74.5048 62.7223C74.5048 63.0682 74.5048 63.5294 74.3893 63.9906C74.2738 64.4518 74.1582 64.913 73.9272 65.3742C73.6961 65.8354 73.3495 66.2966 72.8874 66.6425L72.1942 67.1037C71.9632 67.219 71.6166 67.3343 71.3855 67.4496C71.1544 67.4496 70.8079 67.5649 70.4613 67.5649C70.2302 67.5649 69.8836 67.4496 69.6526 67.4496C69.0749 67.3343 68.6128 66.9884 68.1507 66.6425C67.6886 66.2966 67.4575 65.8354 67.2264 65.4895C66.9954 65.0283 66.7643 64.6824 66.6488 64.3365C66.5333 63.9906 66.4177 63.6447 66.4177 63.2988C66.4177 62.9529 66.4177 62.7223 66.4177 62.4917C66.4177 62.0306 66.4177 61.8 66.4177 61.8Z" fill="#1F2733"/>
<path d="M87.3286 58.341C87.3286 58.341 87.4441 58.5716 87.5597 59.0328C87.6752 59.2634 87.6752 59.494 87.7907 59.7246C87.9063 59.9552 88.0218 60.3011 88.2529 60.647C88.3684 60.9929 88.715 61.2235 88.8305 61.5694C88.946 61.6847 89.0616 61.8 89.2926 62.0306C89.4081 62.1459 89.5237 62.2612 89.7547 62.3765C90.1013 62.6071 90.4479 62.7224 90.7945 62.8377C91.0256 62.8377 91.1411 62.953 91.3722 62.953C91.6032 62.953 91.7187 62.953 91.9498 62.8377L92.5275 62.6071L93.1051 62.2612C93.4517 62.0306 93.6827 61.6847 93.9138 61.3388C94.1449 60.9929 94.2604 60.647 94.4915 60.3011C94.607 59.9552 94.7225 59.6093 94.7225 59.1481C94.7225 58.8022 94.7225 58.4563 94.838 58.2257C94.838 57.8798 94.838 57.6492 94.838 57.4186C94.838 56.9574 94.838 56.7269 94.838 56.7269C94.838 56.7269 94.9536 56.9574 95.0691 57.4186C95.1846 57.6492 95.1846 57.8798 95.3002 58.2257C95.3002 58.5716 95.4157 58.9175 95.4157 59.2634C95.4157 59.6093 95.4157 60.0705 95.3002 60.5317C95.1846 60.9929 95.0691 61.4541 94.838 61.9153C94.607 62.3765 94.2604 62.8377 93.7983 63.1836L93.1051 63.6448C92.874 63.7601 92.5275 63.8754 92.2964 63.9906C92.0653 63.9906 91.7187 64.106 91.3722 64.106C91.1411 64.106 90.7945 63.9906 90.5635 63.9906C89.9858 63.8754 89.5237 63.5295 89.0616 63.1836C88.5994 62.8377 88.3684 62.3765 88.1373 62.0306C87.9063 61.5694 87.6752 61.2235 87.5597 60.8776C87.4441 60.5317 87.3286 60.1858 87.3286 59.8399C87.3286 59.494 87.3286 59.2634 87.3286 59.0328C87.3286 58.5716 87.3286 58.341 87.3286 58.341Z" fill="#1F2733"/>
<path d="M68.2376 78.1034C68.2376 78.1034 68.1221 78.1034 68.2376 78.2187C68.3531 78.334 68.5842 78.4493 68.8153 78.5646C69.2774 78.9105 70.0861 79.2564 71.0103 79.7176C71.9346 80.1788 73.0899 80.64 74.2452 80.9858C74.8228 81.2164 75.516 81.3317 76.0936 81.447C76.6713 81.5623 77.3645 81.6776 78.0577 81.7929C79.3285 81.9082 80.5993 82.0235 81.8701 81.9082C83.1409 81.7929 84.1807 81.5623 85.2205 81.2164C86.1447 80.8705 86.9534 80.64 87.5311 80.4094C88.1087 80.1788 88.4553 80.0635 88.4553 80.0635C88.4553 80.0635 88.2243 80.4094 87.7621 80.7552C87.3 81.2164 86.6068 81.7929 85.6826 82.3694C84.7584 82.9459 83.4875 83.5224 82.1012 83.753C80.7148 84.0989 79.2129 84.0989 77.7111 83.9836C77.0179 83.8683 76.2092 83.753 75.516 83.5224C74.8228 83.2918 74.1296 83.0612 73.552 82.7153C72.2812 82.1388 71.2414 81.447 70.4327 80.7552C69.624 80.0635 68.9308 79.3717 68.5842 78.7952C68.3531 78.5646 68.2376 78.334 68.2376 78.1034C68.1221 78.1034 68.1221 78.2187 68.2376 78.1034Z" fill="#DD9078"/>
<path d="M86.2891 105.613C86.2891 105.613 115.865 102.5 119.677 125.099C123.49 147.813 123.143 153.923 123.143 153.923L94.2606 149.657L86.2891 105.613Z" fill="#6633CC"/>
<path d="M111.242 123.83C109.509 109.417 94.8372 106.304 86.288 105.612C82.4755 110.916 77.1612 114.721 69.8828 114.952C61.5646 115.182 53.9397 112.3 49.8961 105.958C36.9568 107.457 24.133 111.147 21.2447 119.909C15.1217 138.357 20.436 239.82 20.436 239.82C20.436 239.82 72.1934 248.698 114.708 240.627C114.593 240.742 113.553 143.084 111.242 123.83Z" fill="#6633CC"/>
<path opacity="0.2" d="M18.2419 169.258C18.473 202.695 20.437 239.936 20.437 239.936C20.437 239.936 72.1944 248.814 114.709 240.743C114.709 240.743 113.901 166.606 112.168 134.784C80.8591 146.429 49.5505 157.959 18.2419 169.258Z" fill="#352C38"/>
<path d="M50.1276 196.007C50.1276 196.007 48.9723 192.664 54.2866 190.473C59.601 188.282 114.362 173.985 117.828 174.447C121.294 174.908 163.693 179.981 164.387 182.287C165.08 184.593 113.669 201.196 113.669 201.196L50.1276 196.007Z" fill="#E1EDFF"/>
<path d="M116.558 205.577C116.558 205.577 56.5979 205.347 51.9767 199.928C47.3555 194.509 47.24 190.588 73.4652 195.2C99.6905 199.812 114.825 199.12 114.825 199.12C114.825 199.12 162.885 176.753 164.503 182.172C166.005 187.706 171.088 186.322 116.558 205.577Z" fill="#C0D5FF"/>
<path d="M164.387 182.287C162.885 176.868 114.709 199.236 114.709 199.236C114.709 199.236 114.594 199.236 114.247 199.236C115.287 201.311 116.096 203.271 117.02 205.462C171.088 186.322 166.005 187.706 164.387 182.287Z" fill="#B1C5E8"/>
<path d="M48.3944 183.67C48.3944 183.67 47.2391 180.327 52.5535 178.136C57.8679 175.945 112.629 161.648 116.095 162.11C119.561 162.571 161.96 167.644 162.653 169.95C163.347 172.256 111.936 188.859 111.936 188.859L48.3944 183.67Z" fill="#E1EDFF"/>
<path d="M114.825 193.356C114.825 193.356 54.8647 193.125 50.2435 187.706C45.6223 182.287 45.5068 178.367 71.7321 182.979C97.9573 187.591 113.092 186.899 113.092 186.899C113.092 186.899 161.152 164.531 162.77 169.95C164.156 175.369 169.355 173.985 114.825 193.356Z" fill="#C0D5FF"/>
<path d="M162.654 170.065C161.152 164.646 112.977 187.014 112.977 187.014C112.977 187.014 112.861 187.014 112.514 187.014C113.554 189.09 114.363 191.05 115.287 193.24C169.24 173.985 164.156 175.369 162.654 170.065Z" fill="#B1C5E8"/>
<path d="M48.1638 173.639C48.1638 173.639 47.124 170.757 52.2074 168.797C57.2907 166.837 110.319 154.269 113.669 154.73C117.02 155.192 158.033 159.688 158.726 161.648C159.419 163.608 109.626 178.367 109.626 178.367L48.1638 173.639Z" fill="#E1EDFF"/>
<path d="M112.399 182.172C112.399 182.172 54.403 181.941 49.8973 177.214C45.3916 172.486 45.3916 169.027 70.6927 173.063C95.9937 177.098 110.666 176.522 110.666 176.522C110.666 176.522 157.224 156.806 158.726 161.648C160.228 166.376 165.196 165.107 112.399 182.172Z" fill="#C0D5FF"/>
<path d="M158.726 161.648C157.224 156.921 110.666 176.522 110.666 176.522C110.666 176.522 110.55 176.522 110.204 176.522C111.128 178.251 112.052 180.096 112.861 181.941C165.196 165.107 160.228 166.376 158.726 161.648Z" fill="#B1C5E8"/>
<path d="M49.7811 160.15C49.7811 160.15 48.8569 157.267 54.0557 155.422C59.2546 153.693 112.629 143.085 115.98 143.662C119.33 144.123 160.112 150.234 160.69 152.194C161.267 154.154 111.012 166.952 111.012 166.952L49.7811 160.15Z" fill="white"/>
<path d="M113.67 171.102C113.67 171.102 55.6737 168.681 51.3991 163.838C47.1245 158.88 47.1245 155.537 72.31 160.494C97.4955 165.452 112.168 165.452 112.168 165.452C112.168 165.452 159.419 147.581 160.69 152.308C162.077 157.035 167.044 155.998 113.67 171.102Z" fill="#C0D5FF"/>
<path d="M160.69 152.309C159.419 147.467 112.168 165.453 112.168 165.453C112.168 165.453 112.052 165.453 111.706 165.453C112.63 167.298 113.439 169.143 114.132 170.988C166.929 155.999 161.961 157.036 160.69 152.309Z" fill="#B1C5E8"/>
<path d="M19.6284 162.34L48.1643 155.422C48.1643 155.422 54.2874 196.93 55.9048 199.236C57.5222 201.542 105.236 203.848 105.236 203.848L119.1 204.655C119.1 204.655 60.526 229.213 43.6586 219.298C26.5602 209.151 19.6284 162.34 19.6284 162.34Z" fill="#FFB39F"/>
<path d="M22.4011 167.298C31.1814 164.646 39.7306 161.418 48.7419 159.458C48.3953 156.921 48.1643 155.422 48.1643 155.422L19.6284 162.34C19.6284 162.34 19.975 164.416 20.5527 167.875C21.2458 167.644 21.8235 167.413 22.4011 167.298Z" fill="#E09B8D"/>
<path d="M113.785 208.46C113.785 208.46 135.505 202.695 135.505 198.313C135.505 193.932 127.649 178.136 133.194 199.236C133.194 199.236 121.641 170.642 130.884 200.619C130.884 200.619 121.872 177.329 127.995 201.196C127.995 201.196 118.753 185.054 125.454 202.349L117.136 205.462L97.149 205.231L86.5203 215.608L113.785 208.46Z" fill="#FFB39F"/>
<path d="M164.618 187.36C164.618 187.36 153.065 158.766 162.308 188.744C162.308 188.744 153.297 165.453 159.42 189.32C159.42 189.32 150.177 173.178 156.069 190.588L149.715 193.586C152.026 193.817 155.029 193.701 157.456 192.894C164.849 191.395 166.929 188.859 166.929 186.553C166.929 182.172 159.073 166.376 164.618 187.36Z" fill="#FFB39F"/>
<path d="M194.078 490.825C194.078 494.976 190.728 498.435 186.569 498.55C182.41 498.55 178.944 495.207 178.828 491.056L178.482 466.613C178.482 462.462 181.832 459.003 185.991 458.888C190.15 458.888 193.616 462.231 193.732 466.382L194.078 490.825Z" fill="#091E1D"/>
<path d="M87.6754 492.095C87.6754 496.245 84.325 499.704 80.1659 499.82C76.0069 499.82 72.541 496.476 72.4254 492.325L72.0789 467.882C72.0789 463.731 75.4292 460.272 79.5883 460.157C83.7474 460.157 87.2133 463.501 87.3288 467.651L87.6754 492.095Z" fill="#091E1D"/>
<path d="M185.529 473.415C185.645 482.87 178.02 490.595 168.546 490.71L97.3798 491.517C87.9064 491.633 80.1659 484.023 80.0503 474.568L72.4254 312.92C72.3098 303.466 79.9348 295.741 89.4083 295.625L172.012 294.588C181.485 294.472 189.226 302.082 189.342 311.536L185.529 473.415Z" fill="#322153"/>
<path d="M188.879 327.793L189.226 311.767C189.111 302.313 181.37 294.703 171.897 294.818L89.2928 295.856C79.8193 295.971 72.1944 303.696 72.3099 313.151L73.1186 329.177L188.879 327.793Z" fill="#1C0C3B"/>
<path d="M202.974 307.732C202.974 310.383 200.895 312.459 198.237 312.574L63.2986 314.188C60.6415 314.188 58.5619 312.113 58.4464 309.461L58.2153 292.397C58.2153 289.745 60.2949 287.67 62.9521 287.554L197.891 285.94C200.548 285.94 202.628 288.016 202.743 290.667L202.974 307.732Z" fill="#322153"/>
<path d="M131.345 355.119L147.057 345.665L143.245 355.465L131.345 355.119Z" fill="white"/>
<path d="M125.454 340.246C125.454 340.246 126.724 340.246 128.688 343.243C130.652 346.241 135.043 354.312 135.043 354.312L143.014 350.738L144.863 347.625C144.863 347.625 141.397 340.707 138.624 340.246H125.454Z" fill="white"/>
<path d="M121.063 342.321C121.063 342.321 123.49 339.669 125.454 341.053C127.418 342.437 130.883 348.202 130.883 348.202L125.223 358.117L115.056 352.468L121.063 342.321Z" fill="white"/>
<path d="M138.509 367.456L139.317 385.673L132.501 377.718L138.509 367.456Z" fill="white"/>
<path d="M154.452 369.301C154.452 369.301 153.874 370.454 150.293 370.8C146.711 371.146 137.469 371.146 137.469 371.146L136.776 379.908L138.624 383.022C138.624 383.022 146.365 383.367 148.098 381.061L154.452 369.301Z" fill="white"/>
<path d="M154.567 364.458C154.567 364.458 155.838 367.802 153.643 368.955C151.563 369.993 144.747 370.223 144.747 370.223L138.624 360.538L148.444 354.197L154.567 364.458Z" fill="white"/>
<path d="M124.76 367.226L108.585 358.694L118.868 356.849L124.76 367.226Z" fill="white"/>
<path d="M115.056 380.024C115.056 380.024 114.363 378.986 115.865 375.758C117.367 372.529 121.988 364.574 121.988 364.574L114.825 359.616L111.243 359.731C111.243 359.731 107.084 366.303 108.124 368.84L115.056 380.024Z" fill="white"/>
<path d="M119.215 382.56C119.215 382.56 115.634 381.868 115.865 379.562C115.98 377.141 119.215 371.261 119.215 371.261L130.653 370.915L131.115 382.56H119.215Z" fill="white"/>
</svg>
